<svg width="120" height="120" viewBox="0 0 120 120" fill="none" xmlns="http://www.w3.org/2000/svg">
<path d="M0 28C0 12.536 12.536 0 28 0H92C107.464 0 120 12.536 120 28V92C120 107.464 107.464 120 92 120H28C12.536 120 0 107.464 0 92V28Z" fill="#333333"/>
<path fill-rule="evenodd" clip-rule="evenodd" d="M88.0751 28.3696C89.059 27.3134 89.595 25.9165 89.57 24.4731C89.544 23.0298 88.9594 21.6526 87.9386 20.6318C86.9178 19.6111 85.5406 19.0263 84.0973 19.0009C82.6539 18.9754 81.257 19.5112 80.2008 20.4953L46.4751 54.2062L46.3042 54.377L9.62942 91.067C8.85122 91.846 8.32142 92.838 8.10682 93.918C7.89222 94.998 8.00251 96.118 8.42381 97.135C8.84511 98.153 9.55852 99.023 10.4738 99.635C11.3891 100.247 12.4653 100.574 13.5665 100.575H106.424C107.901 100.575 109.318 99.988 110.363 98.943C111.408 97.899 111.995 96.482 111.995 95.004C111.995 93.526 111.408 92.109 110.363 91.064C109.318 90.019 107.901 89.432 106.424 89.432H70.8705C69.7637 78.0506 65.2923 67.2562 58.0265 58.4256L88.0751 28.3696ZM50.1002 66.3519L27.0197 89.432H59.6608C58.6426 81.0099 55.336 73.0274 50.1002 66.3519Z" fill="#DF6146"/>
</svg>
